# xmcd
#
# Track frame offsets: 
#        150
#        18977
#        42791
#        67412
#        93598
#        113533
#        145357
#        164467
#        182786
#        198899
#        228941
#
# Disc length: 3344 seconds
#
# Revision: 1
# Processed by: cddbd v1.5.2PL0 Copyright (c) Steve Scherf et al.
# Submitted via: ExactAudioCopy v1.0b4
#
DISCID=940d0e0b
DTITLE=Doug MacLeod - Exactly Like This
DYEAR=2015
DGENRE=Blues
TTITLE0=Rock It Till The Cows Come Home
TTITLE1=Too Many Misses For Me
TTITLE2=Find Your Right Mind
TTITLE3=Ain't It Rough
TTITLE4=Vanetta
TTITLE5=Serious Doin' Woman
TTITLE6=Ridge Runner
TTITLE7=New Morning Road
TTITLE8=Raylene
TTITLE9=Heaven's The Only Place
TTITLE10=You Got It Good (And That Ain't Bad)
EXTD=
EXTT0=
EXTT1=
EXTT2=
EXTT3=
EXTT4=
EXTT5=
EXTT6=
EXTT7=
EXTT8=
EXTT9=
EXTT10=
PLAYORDER=
